<?xml version="1.0" encoding="iso-8859-1"?>
<!-- Generator: Adobe Illustrator 18.0.0, SVG Export Plug-In . SVG Version: 6.00 Build 0)  -->
<!DOCTYPE svg PUBLIC "-//W3C//DTD SVG 1.1//EN" "http://www.w3.org/Graphics/SVG/1.1/DTD/svg11.dtd">
<svg version="1.1" id="Capa_1" xmlns="http://www.w3.org/2000/svg" xmlns:xlink="http://www.w3.org/1999/xlink" 
	 viewBox="0 0 262.02 262.02"  xml:space="preserve">
<g>
	<path d="M130.914,61.404c16.928,0,30.701-13.771,30.701-30.699C161.615,13.774,147.842,0,130.914,0
		c-16.93,0-30.703,13.774-30.703,30.705C100.211,47.633,113.984,61.404,130.914,61.404z M130.914,15
		c8.657,0,15.701,7.045,15.701,15.705c0,8.656-7.044,15.699-15.701,15.699c-8.659,0-15.703-7.043-15.703-15.699
		C115.211,22.045,122.255,15,130.914,15z"/>
	<path d="M142.779,68.914h-23.54c-16.518,0-29.956,13.439-29.956,29.959v50.484c0,9.509,4.495,18.307,11.966,23.924v81.238
		c0,4.143,3.358,7.5,7.5,7.5c4.142,0,7.5-3.357,7.5-7.5v-85.316c0-2.879-1.623-5.376-4.003-6.633
		c-4.912-2.623-7.963-7.684-7.963-13.213V98.873c0-8.248,6.709-14.959,14.956-14.959h23.54c8.248,0,14.957,6.711,14.957,14.959
		v50.484c0,5.53-3.054,10.592-7.971,13.216c-2.377,1.258-3.998,3.753-3.998,6.63v85.316c0,4.143,3.358,7.5,7.5,7.5
		c4.142,0,7.5-3.357,7.5-7.5V173.28c7.473-5.616,11.969-14.415,11.969-23.923V98.873C172.736,82.354,159.298,68.914,142.779,68.914z
		"/>
</g>
<g>
</g>
<g>
</g>
<g>
</g>
<g>
</g>
<g>
</g>
<g>
</g>
<g>
</g>
<g>
</g>
<g>
</g>
<g>
</g>
<g>
</g>
<g>
</g>
<g>
</g>
<g>
</g>
<g>
</g>
</svg>
